<svg xmlns="http://www.w3.org/2000/svg" viewBox="0 0 640 400" role="img" aria-labelledby="title desc">
  <title id="title">DPMNet abstract method thumbnail</title>
  <desc id="desc">Two feature pathways converge through multiscale interaction blocks toward a forest-fire detection output.</desc>
  <rect width="640" height="400" rx="28" fill="#f3f7fb"/>
  <path d="M66 76h508M66 324h508" stroke="#d7e0e8" stroke-width="2"/>
  <text x="66" y="55" fill="#315b7d" font-family="Segoe UI,Arial,sans-serif" font-size="24" font-weight="700">DPMNet</text>
  <g fill="#fff" stroke="#6f8da5" stroke-width="3">
    <rect x="68" y="112" width="112" height="68" rx="14"/><rect x="68" y="220" width="112" height="68" rx="14"/>
    <rect x="254" y="94" width="120" height="78" rx="16"/><rect x="254" y="228" width="120" height="78" rx="16"/>
    <rect x="458" y="158" width="116" height="84" rx="18"/>
  </g>
  <g fill="none" stroke="#315b7d" stroke-width="4" stroke-linecap="round" stroke-linejoin="round">
    <path d="M180 146h42l32-13M180 254h42l32 13M374 133h34l50 53M374 267h34l50-53"/>
    <path d="M102 146h44m-22-22v44M98 254l26-24 25 24"/>
    <circle cx="314" cy="133" r="15"/><circle cx="344" cy="267" r="15"/>
    <path d="M490 204l23 19 31-39"/>
  </g>
  <g fill="#a75017"><circle cx="300" cy="118" r="5"/><circle cx="329" cy="148" r="5"/><circle cx="329" cy="252" r="5"/><circle cx="359" cy="282" r="5"/></g>
  <text x="68" y="352" fill="#536575" font-family="Segoe UI,Arial,sans-serif" font-size="16">dual pathways · multidimensional interaction · real-time detection</text>
</svg>
