<svg xmlns="http://www.w3.org/2000/svg" viewBox="0 0 640 400" role="img" aria-labelledby="title desc">
  <title id="title">M4SFWD abstract dataset thumbnail</title>
  <desc id="desc">Four varied synthetic wildfire scenes feed a curated dataset stack.</desc>
  <rect width="640" height="400" rx="28" fill="#f3f7fb"/>
  <text x="64" y="55" fill="#315b7d" font-family="Segoe UI,Arial,sans-serif" font-size="24" font-weight="700">M4SFWD</text>
  <g stroke="#6f8da5" stroke-width="3">
    <rect x="66" y="88" width="164" height="100" rx="14" fill="#fff"/><rect x="252" y="88" width="164" height="100" rx="14" fill="#fff"/>
    <rect x="66" y="210" width="164" height="100" rx="14" fill="#fff"/><rect x="252" y="210" width="164" height="100" rx="14" fill="#fff"/>
  </g>
  <g fill="none" stroke="#315b7d" stroke-width="3" stroke-linejoin="round">
    <path d="M82 168l42-42 31 25 26-35 33 52M268 168l35-50 44 42 23-27 30 35M82 290l32-54 39 39 25-35 36 50M268 290l46-66 31 39 24-31 31 58"/>
  </g>
  <g fill="#a75017"><path d="M151 166c-13-17 6-28 4-43 19 15 22 30 12 44-7 9-19 8-23-1-3-6-1-12 3-16 0 8 1 13 4 16z"/><path d="M344 166c-13-17 6-28 4-43 19 15 22 30 12 44-7 9-19 8-23-1-3-6-1-12 3-16 0 8 1 13 4 16z"/><path d="M151 288c-13-17 6-28 4-43 19 15 22 30 12 44-7 9-19 8-23-1-3-6-1-12 3-16 0 8 1 13 4 16z"/></g>
  <g fill="#fff" stroke="#315b7d" stroke-width="3"><rect x="472" y="118" width="112" height="150" rx="16"/><rect x="458" y="133" width="112" height="150" rx="16"/><rect x="444" y="148" width="112" height="150" rx="16"/></g>
  <path d="M472 257l25-42 35 42M491 209l18-31 23 31" fill="none" stroke="#315b7d" stroke-width="4" stroke-linejoin="round"/>
  <text x="64" y="352" fill="#536575" font-family="Segoe UI,Arial,sans-serif" font-size="16">multi-faceted synthesis · scene diversity · curated benchmark</text>
</svg>
